# xmcd
#
# Track frame offsets: 
#        150
#        20505
#        43027
#        60657
#        76080
#        94810
#        110060
#        127702
#        142150
#        163405
#        179842
#        199182
#        216957
#        231985
#
# Disc length: 3229 seconds
#
# Revision: 0
# Processed by: cddbd v1.4PL0 Copyright (c) Steve Scherf et al.
# Submitted via: ExactAudioCopy v0.90a11
#
DISCID=d00c9b0e
DTITLE=James Nixon - No End To The Blues
DYEAR=1900
DGENRE=
TTITLE0=No End To The Blues
TTITLE1=Trying To Hold On
TTITLE2=Sundown Blues
TTITLE3=Baby Right Now
TTITLE4=Sweet Thing
TTITLE5=The Best In Town
TTITLE6=Please Come Back To Me
TTITLE7=One More Chance With You
TTITLE8=Oh Baby
TTITLE9=You're The One
TTITLE10=Tongue Tied Blues
TTITLE11=Handy Man
TTITLE12=Love At First Sight
TTITLE13=Howling At The Moon
EXTD=
EXTT0=
EXTT1=
EXTT2=
EXTT3=
EXTT4=
EXTT5=
EXTT6=
EXTT7=
EXTT8=
EXTT9=
EXTT10=
EXTT11=
EXTT12=
EXTT13=
PLAYORDER=
